# xmcd
#
# Track frame offsets:
#       150
#       11435
#       25833
#       36436
#       50163
#       66634
#       80788
#       94673
#       113495
#       126925
#       140742
#       152789
#
# Disc length: 2242 seconds
#
# Revision: 0
# Processed by: cddbd v1.5.2PL0 Copyright (c) Steve Scherf et al.
# Submitted via: WaveLab 4.01
#
DISCID=aa08c00c
DTITLE=Leo De Castro and The Dancehall Racketeers/Roger Janes Band - Long White Clouds
DYEAR=1900
DGENRE=
TTITLE0=Walking After Midnight
TTITLE1=Move It On Over
TTITLE2=No One To Talk To
TTITLE3=Lovesick Blues
TTITLE4=Mystery Train
TTITLE5=Faded Love
TTITLE6=That's All Right
TTITLE7=Crazy
TTITLE8=See You Later Alligator
TTITLE9=Good Rockin' Tonight
TTITLE10=Lucille
TTITLE11=Heartbreak Hotel
EXTD=
EXTT0=
EXTT1=
EXTT2=
EXTT3=
EXTT4=
EXTT5=
EXTT6=
EXTT7=
EXTT8=
EXTT9=
EXTT10=
EXTT11=
PLAYORDER=
